<?xml version="1.0" encoding="UTF-8" standalone="no"?>
<!-- Created with Inkscape (http://www.inkscape.org/) -->

<svg
   xmlns:dc="http://purl.org/dc/elements/1.1/"
   xmlns:cc="http://creativecommons.org/ns#"
   xmlns:rdf="http://www.w3.org/1999/02/22-rdf-syntax-ns#"
   xmlns:svg="http://www.w3.org/2000/svg"
   xmlns="http://www.w3.org/2000/svg"
   xmlns:sodipodi="http://sodipodi.sourceforge.net/DTD/sodipodi-0.dtd"
   xmlns:inkscape="http://www.inkscape.org/namespaces/inkscape"
   id="svg7384"
   height="55"
   width="55"
   version="1.1"
   inkscape:version="0.48.4 r9939"
   sodipodi:docname="clear_console.svg">
  <defs
     id="defs4389" />
  <sodipodi:namedview
     pagecolor="#ffffff"
     bordercolor="#666666"
     borderopacity="1"
     objecttolerance="10"
     gridtolerance="10"
     guidetolerance="10"
     inkscape:pageopacity="0"
     inkscape:pageshadow="2"
     inkscape:window-width="1024"
     inkscape:window-height="551"
     id="namedview4387"
     showgrid="false"
     inkscape:zoom="3.6875"
     inkscape:cx="8"
     inkscape:cy="10.234279"
     inkscape:window-x="0"
     inkscape:window-y="25"
     inkscape:window-maximized="1"
     inkscape:current-layer="svg7384" />
  <metadata
     id="metadata90">
    <rdf:RDF>
      <cc:Work
         rdf:about="">
        <dc:format>image/svg+xml</dc:format>
        <dc:type
           rdf:resource="http://purl.org/dc/dcmitype/StillImage" />
        <dc:title>Gnome Symbolic Icon Theme</dc:title>
      </cc:Work>
    </rdf:RDF>
  </metadata>
  <title
     id="title9167">Gnome Symbolic Icon Theme</title>
  <g
     transform="matrix(2.2434794,0.65533321,-0.65533321,2.2434794,75.442904,-1847.7352)"
     id="layer12"
     style="stroke:#000000;fill:#ffffff">
    <path
       d="m 211.88,767.06 a 1.0001,1.0001 0 0 0 -0.6875,0.5 l -3.3125,5.625 a 1.0078,1.0078 0 1 0 1.75,1 l 3.3125,-5.625 a 1.0001,1.0001 0 0 0 -1.0625,-1.5 z"
       style="text-indent:0;text-transform:none;block-progression:tb;color:#000000;fill:#ffffff;stroke:#000000;enable-background:new"
       id="path36048"
       inkscape:connector-curvature="0" />
    <path
       d="m 206.53,771.72 4.9474,3.0538 c 0.60355,0.31472 0.68739,0.89216 0.20883,1.5087 l -0.625,0.8125 -6.5938,-3.875 0.55118,-1.0614 c 0.28883,-0.58524 0.75466,-0.81586 1.5113,-0.43864 z"
       style="color:#000000;fill:#ffffff;stroke:#000000;enable-background:new"
       id="path36050"
       inkscape:connector-curvature="0" />
    <path
       d="m 204.56,774.58 c 0,0 -2.8547,3.0362 -1.3326,4.6991 1.6875,1.8438 4.758,1.7674 5.8628,1.7232 h 4.0087 c -1.875,-0.375 -3.8371,-1.8156 -2.9027,-3.2446 z"
       style="color:#000000;fill:#ffffff;stroke:#000000;enable-background:new"
       id="path36052"
       inkscape:connector-curvature="0" />
  </g>
  <g
     transform="matrix(3.347328,0,0,3.347328,-940.197,-2104.665)"
     id="layer11-9"
     style="fill:#ffffff">
    <path
       d="m 284.12,629.03 c -0.56869,5e-5 -1.0937,0.50285 -1.0938,1.0625 v 12.844 0.25 0.78125 c 5e-5,0.55965 0.52506,1.0624 1.0938,1.0625 h 4.3438 1.125 5.3438 c 0.55754,-5e-5 1.074,-0.48468 1.0938,-1.0312 3.9e-4,-0.0109 0,-0.0204 0,-0.0312 v -6.9376 l -2,2 v 4 h -9 v -12 h 5 l 2,2 1.5312,-1.5312 -2.1875,-2.125 c -0.20046,-0.20837 -0.48969,-0.3416 -0.78125,-0.34375 z"
       style="text-indent:0;text-transform:none;block-progression:tb;color:#000000;fill:#ffffff"
       id="path6682-6"
       inkscape:connector-curvature="0" />
  </g>
</svg>
