<?xml version="1.0" encoding="UTF-8" standalone="no"?>
<!-- Created with Inkscape (http://www.inkscape.org/) -->

<svg
   xmlns:dc="http://purl.org/dc/elements/1.1/"
   xmlns:cc="http://creativecommons.org/ns#"
   xmlns:rdf="http://www.w3.org/1999/02/22-rdf-syntax-ns#"
   xmlns:svg="http://www.w3.org/2000/svg"
   xmlns="http://www.w3.org/2000/svg"
   xmlns:sodipodi="http://sodipodi.sourceforge.net/DTD/sodipodi-0.dtd"
   xmlns:inkscape="http://www.inkscape.org/namespaces/inkscape"
   id="svg7384"
   height="55"
   width="55"
   version="1.1"
   inkscape:version="0.48.4 r9939"
   sodipodi:docname="start_vnc.svg">
  <defs
     id="defs4389" />
  <sodipodi:namedview
     pagecolor="#ffffff"
     bordercolor="#666666"
     borderopacity="1"
     objecttolerance="10"
     gridtolerance="10"
     guidetolerance="10"
     inkscape:pageopacity="0"
     inkscape:pageshadow="2"
     inkscape:window-width="1024"
     inkscape:window-height="551"
     id="namedview4387"
     showgrid="false"
     inkscape:zoom="3.6875"
     inkscape:cx="8"
     inkscape:cy="8"
     inkscape:window-x="0"
     inkscape:window-y="25"
     inkscape:window-maximized="1"
     inkscape:current-layer="svg7384" />
  <metadata
     id="metadata90">
    <rdf:RDF>
      <cc:Work
         rdf:about="">
        <dc:format>image/svg+xml</dc:format>
        <dc:type
           rdf:resource="http://purl.org/dc/dcmitype/StillImage" />
        <dc:title>Gnome Symbolic Icon Theme</dc:title>
      </cc:Work>
    </rdf:RDF>
  </metadata>
  <title
     id="title9167">Gnome Symbolic Icon Theme</title>
  <g
     id="layer11"
     transform="matrix(3.0985169,0,0,3.0985169,-254.4661,-1636.4057)"
     style="fill:#ffffff">
    <path
       id="rect11749-9"
       style="text-indent:0;text-transform:none;block-progression:tb;color:#bebebe;fill:#ffffff"
       d="m 85.188,529 c -1.2016,0 -2.1875,0.98751 -2.1875,2.1874 v 8.6244 c 0,1.1998 0.98591,2.1874 2.1875,2.1874 h 11.625 c 1.2016,0 2.1875,-0.98751 2.1875,-2.1874 v -8.6244 C 99.0005,529.9876 98.01459,529 96.813,529 H 85.188 z m 0,1.9999 h 11.625 c 0.1238,0 0.1875,0.0566 0.1875,0.18749 v 8.6244 c 0,0.13088 -0.0637,0.18749 -0.1875,0.18749 H 85.188 c -0.1238,0 -0.1875,-0.0566 -0.1875,-0.18749 v -8.6244 c 0,-0.13088 0.0637,-0.18749 0.1875,-0.18749 z"
       inkscape:connector-curvature="0" />
    <path
       id="path11751-0"
       style="text-indent:0;text-transform:none;block-progression:tb;color:#bebebe;fill:#ffffff"
       d="m 87.907,543 a 1.0011479,1.0010479 0 1 0 0.09375,1.9999 h 6 a 1.0001,1 0 1 0 0,-1.9999 h -6 a 1.0001,1 0 0 0 -0.0937,0 z"
       inkscape:connector-curvature="0" />
    <path
       id="rect5771"
       style="color:#bebebe;fill:#ffffff"
       d="m 86.438,534 c -0.24298,0 -0.4375,0.29728 -0.4375,0.6562 v 3.6872 c 0,0.35893 0.19452,0.65621 0.4375,0.65621 h 4.125 c 0.24298,0 0.4375,-0.29728 0.4375,-0.65621 v -3.6872 C 91.0005,534.29728 90.80598,534 90.563,534 z m 0.5625,1.9999 h 3 v 1.9999 h -3 z"
       inkscape:connector-curvature="0" />
    <path
       id="rect7987"
       style="color:#bebebe;fill:#ffffff"
       d="m 92.438,532 c -0.24298,0 -0.4375,0.28489 -0.4375,0.62495 v 2.7498 c 0,0.34006 0.19452,0.62496 0.4375,0.62496 h 3.125 c 0.24298,0 0.4375,-0.2849 0.4375,-0.62496 v -2.7498 C 96.0005,532.28489 95.80598,532 95.563,532 z m 0.5625,1.9999 h 2 v 0.99993 h -2 z"
       inkscape:connector-curvature="0" />
  </g>
  <g
     transform="matrix(3.8013779,0,0,3.8013779,-230.69134,-1975.3126)"
     id="layer12"
     style="fill:#ffffff;stroke:#000000">
    <g
       transform="translate(19,-242)"
       id="layer4-4-1"
       style="fill:#ffffff;stroke:#000000">
      <path
         d="m 45,764 h 1 c 0.01037,-1.2e-4 0.02079,-4.6e-4 0.03125,0 0.25495,0.0112 0.50987,0.12858 0.6875,0.3125 l 2.281,2.28 2.312,-2.28 c 0.266,-0.23 0.447,-0.3 0.688,-0.31 h 1 v 1 c 0,0.28647 -0.03434,0.55065 -0.25,0.75 l -2.2812,2.2812 2.25,2.25 c 0.188,0.19 0.281,0.45 0.281,0.72 v 1 h -1 c -0.2653,-10e-6 -0.53059,-0.0931 -0.71875,-0.28125 l -2.281,-2.28 -2.281,2.28 c -0.188,0.19 -0.454,0.28 -0.719,0.28 h -1 v -1 c -3e-6,-0.26529 0.09306,-0.53058 0.28125,-0.71875 l 2.2812,-2.25 -2.281,-2.28 c -0.21,-0.19 -0.303,-0.47 -0.281,-0.75 v -1 z"
         style="text-indent:0;text-transform:none;block-progression:tb;color:#bebebe;fill:#ffffff;stroke:#000000;enable-background:new"
         id="path10839-9"
         inkscape:connector-curvature="0" />
    </g>
  </g>
</svg>
